<svg xmlns="http://www.w3.org/2000/svg" viewBox="0 0 68 68" enable-background="new 0 0 68 68"><path d="m52 0h-33v21h-19v34h19v13h49v-52l-16-16m1 6l9 9h-9v-9m-26.4 29.7c.1.2.4.5.7.7.3.2 1.1.6 2.3 1.2 1.6.8 2.7 1.6 3.3 2.4.6.8.9 1.8.9 2.9 0 1.6-.6 2.8-1.7 3.7-1.1.9-2.6 1.4-4.6 1.4-1.8 0-3.4-.4-4.9-1.1v-3.4c1.2.5 2.1.9 2.9 1.1.8.2 1.5.3 2.2.3.8 0 1.4-.2 1.8-.5.4-.3.6-.8.6-1.4 0-.3-.1-.6-.3-.9-.2-.3-.5-.5-.8-.8-.4-.2-1.1-.6-2.2-1.2-1-.5-1.8-1-2.4-1.4-.5-.5-.9-1-1.3-1.6-.3-.6-.5-1.3-.5-2.2 0-1.5.5-2.8 1.5-3.7 1-.9 2.4-1.3 4.3-1.3.9 0 1.7.1 2.5.3.8.2 1.7.5 2.5.9l-1.2 2.9c-.9-.4-1.7-.7-2.3-.8-.6-.2-1.2-.2-1.8-.2-.7 0-1.2.2-1.6.5-.4.3-.6.8-.6 1.3.5.4.6.7.7.9m-13.6 9.2c1.2 0 2.7-.3 4.4-.9v3.1c-1.4.6-3 .9-4.7.9-2.5 0-4.4-.8-5.7-2.3-1.3-1.5-2-3.8-2-6.7 0-1.8.3-3.4 1-4.8.6-1.4 1.6-2.4 2.8-3.1 1.2-.7 2.6-1.1 4.2-1.1 1.7 0 3.3.4 5 1.2l-1.2 3c-.6-.3-1.3-.6-1.9-.8-.6-.2-1.3-.3-1.9-.3-1.4 0-2.4.5-3.2 1.6-.7 1-1.1 2.5-1.1 4.4 0 3.9 1.5 5.8 4.3 5.8m10 19.1v-9h34v-34h-34v-17h26v15h15v45h-41m14.4-33.7h3.7l3.2 10.4c.2.6.4 1.3.6 2.1.2.8.3 1.4.4 1.7.1-.7.4-2 .9-3.9l3.2-10.4h3.6l-5.8 17.5h-4l-5.8-17.4" fill="#fff"/></svg>