<svg xmlns="http://www.w3.org/2000/svg" viewBox="0 0 68 68" enable-background="new 0 0 68 68"><g fill="#fff"><path d="m23.8 33.9c0 3.6-1 6.3-3 8.2s-4.9 2.9-8.7 2.9h-6.1v-21.7h6.7c3.5 0 6.2.9 8.2 2.8 2 1.9 2.9 4.5 2.9 7.8m-4.7.2c0-4.7-2-7-6.1-7h-2.4v14.1h2c4.3 0 6.5-2.4 6.5-7.1"/><path d="m28.3 23.3h6.7c3 0 5.3.4 6.6 1.3 1.4.9 2.1 2.3 2.1 4.2 0 1.3-.3 2.4-.9 3.2-.6.8-1.4 1.3-2.4 1.5v.1c1.4.3 2.3.9 2.9 1.7.6.8.9 2 .9 3.4 0 2-.7 3.5-2.1 4.6-1.4 1.1-3.3 1.7-5.8 1.7h-8v-21.7m4.5 8.6h2.6c1.2 0 2.1-.2 2.7-.6.6-.4.8-1 .8-1.9 0-.8-.3-1.4-.9-1.8-.6-.4-1.6-.5-2.9-.5h-2.4v4.8zm0 3.7v5.7h3c1.3 0 2.2-.2 2.8-.7.6-.5.9-1.2.9-2.2 0-1.8-1.3-2.7-3.8-2.7h-2.9z"/><path d="m62 45h-15v-3.2l5.4-5.5c1.6-1.7 2.6-2.8 3.1-3.4.5-.6.8-1.2 1.1-1.8.2-.5.3-1.1.3-1.7 0-.9-.2-1.5-.7-1.9-.5-.4-1.1-.6-1.9-.6-.8 0-1.6.2-2.4.6-.8.4-1.6.9-2.5 1.6l-2.5-3c1.1-.9 1.9-1.6 2.6-1.9.7-.4 1.5-.7 2.3-.9.8-.2 1.7-.3 2.8-.3 1.3 0 2.5.2 3.6.7 1 .5 1.8 1.2 2.4 2.1.6.9.9 1.9.9 3.1 0 1-.2 1.9-.5 2.8-.3.9-.9 1.8-1.6 2.7-.7.9-2 2.2-3.9 3.9l-2.8 2.6v.2h9.3v3.9"/><path d="M0,0v68h68V0H0z M64,64H4V4h60V64z"/></g></svg>