<svg xmlns="http://www.w3.org/2000/svg" viewBox="0 0 68 68" enable-background="new 0 0 68 68"><g fill="#fff"><path d="m33.4 6.2c1.8 1 5.6 4 8.5 6.9 1.5 1.5 5.6 5.6 6.9 7.6-.4.6-.9 1.5-1.6 2.4-1.8-2.6-4.2-5.7-6.9-8.4-2.8-2.8-6.1-5.3-8.7-7.1.7-.5 1.3-1 1.8-1.4m-.1-4.2c-2.1 0-8.3 6.2-8.3 6.2s7.3 4.1 12.4 9.3c5.2 5.2 9.3 12.4 9.3 12.4s6.2-7.3 6.2-9.3c0-2.1-5.2-7.3-8.3-10.4-3-3-9.2-8.2-11.3-8.2z"/><path d="m62.1 32.3c.6.7 1 1.4 1.3 1.9-1.1 1.7-4.3 5.4-7.3 8.1-1.5 1.4-5.8 5.2-7.9 6.5-.6-.4-1.4-1-2.3-1.8 2.7-1.6 5.9-3.9 8.8-6.4 2.8-2.6 5.5-5.8 7.4-8.3m-.2-6.6c0 0-4.5 7-10 11.9-5.4 4.9-12.9 8.7-12.9 8.7s6.9 6.6 9 6.7c0 0 0 0 .1 0 2.1 0 7.5-4.8 10.7-7.7 3.3-2.9 8.8-8.9 8.9-10.9.1-2.1-5.8-8.7-5.8-8.7z"/><path d="m19.7 45.8c1.9 2.4 4.5 5.4 7.4 8 3 2.6 6.4 4.9 9.1 6.5-.7.6-1.3 1.2-1.8 1.5-1.8-.9-5.8-3.7-8.9-6.3-1.5-1.4-5.9-5.2-7.3-7.1.4-.8.9-1.6 1.5-2.6m-.1-6.9c0 0-5.8 7.6-5.6 9.7.1 2.1 5.6 6.9 8.9 9.8 3.3 2.9 9.7 7.6 11.8 7.6 0 0 .1 0 .1 0 2.1-.1 7.9-6.7 7.9-6.7s-7.5-3.7-13-8.6-10.1-11.8-10.1-11.8z"/><path d="m17.6 18.2c.6.3 1.5.8 2.5 1.5-2.4 1.9-5.4 4.5-7.9 7.4-2.6 3-4.9 6.4-6.5 9.2-.6-.7-1.2-1.3-1.5-1.7.9-1.8 3.6-5.9 6.3-8.9 1.3-1.6 5.2-6 7.1-7.5m-.3-4.2c0 0 0 0 0 0-2.1.1-7 5.7-9.9 9-2.8 3.3-7.6 9.9-7.4 11.9.1 2.1 6.8 7.9 6.8 7.9s3.6-7.5 8.5-13.1c4.7-5.5 11.7-10.1 11.7-10.1s-7.5-5.6-9.7-5.6z"/></g></svg>