<svg xmlns="http://www.w3.org/2000/svg" viewBox="0 0 68 68" enable-background="new 0 0 68 68"><g fill="#fff"><path d="m48 42h8v6h-8z"/><path d="m38 42h5v6h-5z"/><path d="m38 32h5v6h-5z"/><path d="m48 32h8v6h-8z"/><path d="m48 25h8v3h-8z"/><path d="m39 22h-4v6h8v-3h-4z"/><path d="m22 22h8v6h-8z"/><path d="m22 12h8v6h-8z"/><path d="M49,0H13v32H3v36h31v-8h31V15L49,0z M25,64l-6.5-9.8L12,64H6l9.5-14.3L7,37h6l5.5,8.3L24,37h6l-8.5,12.8L31,64
		H25z M61,56H34V32H17V4h26v17h18V56z M47,17V4h1l13,13H47z"/></g></svg>