<svg xmlns="http://www.w3.org/2000/svg" viewBox="0 0 68 68" enable-background="new 0 0 68 68"><g fill="#fff"><path d="m33.6 23l2 .8c1.1.4 5.4 2.6 5.4 5.3 0 3-4 8.3-6.8 11.2l-1.2 1v1.7c0 3.2 2.7 8 10 8 8.7 0 17.9-5.5 21-17.3 0 .4 0 .9 0 1.3 0 19.3-18.6 29-29 29-9.5 0-15-5.8-15-16 0-8.8 4.1-11.2 7.3-12.2 4.7-1.6 7.7-5 7.7-8.8 0-1.3-.4-2.8-1.4-4m4.4-23c0 0 23 8 23 25s-11 22-18 22c-6 0-6-4-6-4s8-8 8-14-8-9-8-9 .9.1 2.1.1c2.4 0 5.9-.4 5.9-3.1 0 0-2 1-4 1s-9-4-13-4c-3 0-3 5-3 5s-7 0-7 4c0 2.7 1.8 3.1 3 3.1.6 0 1-.1 1-.1s1-2 4-2 5 1 5 3-2 4-5 5-10 4-10 16 7 20 19 20 33-11 33-33-17.8-35-30-35z"/><path d="M28,0C21,0,0,10,0,34s22,32,22,32c-8-7-7-13-7-13S4,45,4,33C4,9,28,0,28,0L28,0z"/></g></svg>