<svg xmlns="http://www.w3.org/2000/svg" viewBox="0 0 68 68" enable-background="new 0 0 68 68"><path d="m68 9.5c0-5.2-8.5-9.5-19-9.5s-19 4.3-19 9.5c0 .2 0 .3.1.5h-.1v28h-30v30h49v-17c9.5 0 17.3-3.5 18.7-8h.3v-33h-.1c.1-.2.1-.3.1-.5m-34 26.8c1 .6 2.1 1.2 3.4 1.7h-3.4v-1.7m-17 26.7h-4v-15h4v15m0-17h-4v-3h4v3m17 17l-4.5-6.9-4.5 6.9h-5l7-10.8-6-9.2h5l3.5 5.4 3.5-5.4h5l-6 9.2 7 10.8h-5m30-21c-.8 2.8-7.2 5-15 5v-7c6.1 0 11.5-1.5 15-3.7v5.7m0-11c-.8 2.8-7.2 5-15 5s-14.2-2.2-14.9-5h-.1v-5.7c3.5 2.2 8.9 3.7 15 3.7s11.5-1.5 15-3.7v5.7m0-11c-.8 2.8-7.2 5-15 5s-14.2-2.2-14.9-5h-.1v-4.7c3.5 2.2 8.9 3.7 15 3.7s11.5-1.4 15-3.7v4.7m-15-5c-8.3 0-15-2.5-15-5.5s6.7-5.5 15-5.5 15 2.5 15 5.5-6.7 5.5-15 5.5" fill="#fff"/></svg>