<svg xmlns="http://www.w3.org/2000/svg" viewBox="0 0 68 68" enable-background="new 0 0 68 68"><g fill="#fff"><path d="M15,21L5,47h3l3.1-8h10.8l3.1,8h3L18,21H15z M12.2,36l4.3-11.1L20.8,36H12.2z"/><path d="m68 15.5c0-5.2-8.5-9.5-19-9.5-6.1 0-11.5 1.4-15 3.7v-8.7l-34 8v52l34 6v-13.7c3.5 2.2 8.9 3.7 15 3.7 9.5 0 17.3-3.5 18.7-8h.3v-33h-.1c.1-.2.1-.3.1-.5m-38 46.5l-26-4v-46l26-6v10 33 13m34-14c-.8 2.8-7.2 5-15 5s-14.2-2.2-14.9-5h-.1v-5.7c3.5 2.2 8.9 3.7 15 3.7s11.5-1.5 15-3.7v5.7m0-11c-.8 2.8-7.2 5-15 5s-14.2-2.2-14.9-5h-.1v-5.7c3.5 2.2 8.9 3.7 15 3.7s11.5-1.5 15-3.7v5.7m0-11c-.8 2.8-7.2 5-15 5s-14.2-2.2-14.9-5h-.1v-4.7c3.5 2.2 8.9 3.7 15 3.7s11.5-1.4 15-3.7v4.7m-15-5c-8.3 0-15-2.5-15-5.5s6.7-5.5 15-5.5 15 2.5 15 5.5-6.7 5.5-15 5.5"/></g></svg>