<svg xmlns="http://www.w3.org/2000/svg" viewBox="0 0 68 68" enable-background="new 0 0 68 68"><g fill="#fff"><path d="m25.5 5l3.9 7.7 1.1 2.1 2.3.1c.2 0 17.5.9 27 9.4-4.8.8-15.2 2.7-21.7 6l-2.7 1.4.6 3c0 0 .9 4.7.9 9.2 0 1.8-.5 6.4-1.7 10.9-1.4 5.5-2.9 7.6-3.5 8.1-1.2 0-2.3 0-3.4.1-1.1 0-2.2.1-3.2.1-2.7 0-5.7-.2-9.5-1.8-6.6-2.8-8.5-5.7-8.6-6.3.1-.6 1.9-2.3 3.3-3.7.8-.7 1.6-1.5 2.5-2.4.7-.7 1.6-1.5 2.8-2.5 5.3-4.6 13.4-11.5 13.4-21.4 0-9-5.9-15.3-8.9-17.9 2.6-1 4.5-1.7 5.4-2.1m.8-4.5c-.8 0-1.3.5-1.3.5s-3 1-8 3-1 5-1 5 9 6 9 16-11 17-15 21-7 6-7 9 4 7 11 10c4.2 1.8 7.7 2.2 11.1 2.2 2.3 0 4.5-.2 6.9-.2 6 0 9-18 9-23s-1-10-1-10c8-4 23-6 23-6 5-1 2-4 2-4-10-12-32-13-32-13l-4-8c-1-2-2-2.5-2.7-2.5z"/><path d="m31 15h-6l-3-4h9z"/><path d="m26 35c0 0 6-3 13-5l-2 5c0 0-13 4-19 8s5-6 5-6l3-2"/><path d="m31 15c0 0 4 6 5 16h4c0 0-1-12-6-18s-3 2-3 2"/><path d="m35.5 17.8c0 0 7.1 3.5 13.7 11.3l3.2-2.7c0 0-5.7-6.7-13.7-11.3s-3.2 2.7-3.2 2.7"/><path d="m52 27c0 0 0-7-2-10l5 2c0 0 1 3 1 7s-4 1-4 1"/><path d="m25 29c0 0-3 16-7 22s-7 9-7 9l5 2c0 0 13-14 13-35l-4 2"/><path d="m23 63c0 0 12-13 13-32l4 1c0 0 0 16-12 31l-1 2-4-2"/><path d="m7 55c0 0 11 5 28 2l2-2v-2c0 0-20 2-30-2v4"/><path d="m18 43c0 0 10 9 18 10l2-4c0 0-14-4-17-10l-3 4"/><path d="m53 22c0 0-8-1-17 0s-9 2-9 2v4c0 0 10-4 26-2v-4"/></g></svg>