<svg xmlns="http://www.w3.org/2000/svg" viewBox="0 0 68 68" enable-background="new 0 0 68 68"><path d="m23 4c9.4 0 20.3 9 20.4 9.1l1.6 1.3 2-.5c0 0 2.7-.7 6.3-.8-1.1.9-3.6 3.2-3.8 6.2-.1 1.7.5 3.2 1.6 4.4 1.2 1.8 4.9 12.8 4.9 23.3v3.7c-2.5-5.2-7.7-14.5-14.5-19.9-7.5-5.9-9.4-7.4-9.7-7.7l-4.4-4.9-1.6 4.7c-.5-.5-1-1.1-1.2-1.7-1.1-2.2-4.1-8.2-10.6-8.2-2.2 0-4.5-.3-6.4-.6.5-.2 1-.4 1.5-.5l1.7-.5.8-1.6c0-.1 3-5.8 11.4-5.8m0-4c-11 0-15 8-15 8s-7 2-7 5 9 4 13 4 6 4 7 6 3 4 5 5c.3.1.6.2.8.2 1.5 0 2.2-2.2 2.2-2.2s1 1 10 8 15 22 15 22c-3 2-4 6-4 6s0 2 2 2 2-2 5-2 7 5 8 5 1-1 1-1 0-6-3-8-3-6-3-6v-5c0-11-4-24-6-26s2-5 2-5c4-2 4-3 4-4s-2-3-5-3c-5 0-9 1-9 1s-12-10-23-10z" fill="#fff"/></svg>