<svg xmlns="http://www.w3.org/2000/svg" viewBox="0 0 68 68" enable-background="new 0 0 68 68"><g fill="#fff"><path d="m34 58c10.5 0 19-7.8 19-17.5s-8.5-17.5-19-17.5-19 7.8-19 17.5 8.5 17.5 19 17.5m14.9-19h-3.9c-.2-3.6-1.1-7-2.5-9.6 3.5 2.1 5.9 5.6 6.4 9.6m-4 4h3.9c-.7 3.6-3 6.6-6.2 8.6 1.1-2.4 2-5.4 2.3-8.6m-8.9-15.4c2.7 1.5 4.6 6 5 11.4h-5v-11.4m0 15.4h4.9c-.5 5-2.4 9-4.9 10.4v-10.4m-4 10.4c-2.5-1.4-4.4-5.4-4.9-10.4h4.9v10.4m0-25.8v11.4h-5c.4-5.4 2.3-9.9 5-11.4m-6.5 1.8c-1.4 2.7-2.3 6-2.5 9.6h-3.9c.5-4 2.9-7.5 6.4-9.6m-2.4 13.6c.3 3.2 1.1 6.2 2.4 8.6-3.2-2-5.5-5.1-6.2-8.6h3.8"/><path d="M0,0v68h68V0H0z M64,64H4V16h60V64z"/></g></svg>