<svg xmlns="http://www.w3.org/2000/svg" viewBox="0 0 68 68" enable-background="new 0 0 68 68"><g fill="#fff"><circle cx="19" cy="21" r="2"/><path d="m26 0c-18 0-26 26-26 50 0 17 9 17 9 17s6 0 6-6c0-3-1-4-1-4l-2 2c0 0 1 1 1 2s-1 3-3 3-4-4-4-7 8-20 12-20c7 0 6 31 6 31h9c0 0 3-11 8-11s8 11 8 11h8c0 0 11-15.4 11-35s-24-33-42-33m28.8 64h-2.9c-1.6-4.4-5-11-10.9-11s-9.3 6.6-10.9 11h-2c0-8.6-.6-24-5.3-28.9-1.7-1.7-3.6-2.1-4.8-2.1-2.4 0-5.8 1.2-11 11-.1.2-1.6 3.1-3 6.2 0-.1 0-.1 0-.2 0-12.2 2.2-24 5.9-32.4 4-9 9.5-13.6 16.1-13.6 3.7 0 7.6.6 11.5 1.8 1.8 1.5 3.5 4.2 3.5 9.2 0 20-11 18-11 18v4c13 0 15-16 15-22 0-2.7-.8-5.2-1.7-7.1 2.9 1.3 5.7 2.8 8.2 4.5 4.6 3.3 12.5 10.4 12.5 20.6 0 14.5-6.5 26.7-9.2 31"/></g></svg>