<svg xmlns="http://www.w3.org/2000/svg" viewBox="0 0 68 68" enable-background="new 0 0 68 68"><g fill="#fff"><path d="m49 59c9.5 0 17.3-3.5 18.7-8h.3v-33h-.1c0-.2.1-.3.1-.5 0-5.2-8.5-9.5-19-9.5s-19 4.3-19 9.5c0 .2 0 .3.1.5h-.1v33h.3c1.4 4.5 9.2 8 18.7 8m-15-25.7c3.5 2.2 8.9 3.7 15 3.7s11.5-1.5 15-3.7v5.7h-.1c-.7 2.8-7.1 5-14.9 5s-14.2-2.2-14.9-5h-.1v-5.7m0-5.3v-4.7c3.5 2.2 8.9 3.7 15 3.7s11.5-1.4 15-3.7v4.7h-.1c-.7 2.8-7.1 5-14.9 5s-14.2-2.2-15-5m15 27c-7.8 0-14.2-2.2-14.9-5h-.1v-5.7c3.5 2.2 8.9 3.7 15 3.7s11.5-1.5 15-3.7v5.7h-.1c-.7 2.8-7.1 5-14.9 5m0-43c8.3 0 15 2.5 15 5.5s-6.7 5.5-15 5.5-15-2.5-15-5.5 6.7-5.5 15-5.5"/><path d="m22 0h4v68h-4z"/><path d="m0 0h4v68h-4z"/><path d="m16.1 57.6c1.2 0 2.2.4 2.9 1.3.7.9 1 2 1 3.5 0 1.5-.2 2.7-.7 3.7h-2.1c.3-.6.5-1.2.7-1.9.2-.7.3-1.3.3-1.9 0-.9-.2-1.5-.5-1.9-.3-.4-.8-.6-1.4-.6-.5 0-.9.2-1.3.6s-.8 1.1-1.3 2.3c-.5 1.2-1.1 2.1-1.7 2.6-.6.5-1.4.7-2.3.7-1.1 0-2-.4-2.7-1.2-.7-.8-1-1.8-1-3.2 0-1.3.3-2.5.9-3.8l1.8.7c-.5 1.2-.8 2.2-.8 3.1 0 .7.2 1.2.5 1.6.3.4.7.5 1.2.5.4 0 .7-.1.9-.2.3-.1.5-.4.7-.7.2-.3.5-.9.9-1.8.4-1 .8-1.7 1.2-2.1.4-.5.8-.8 1.2-1 .5-.1 1-.3 1.6-.3"/><path d="m12.4 51.4l-6.2-3.1v-2.4l8.3 4.4h5.3v2.2h-5.2l-8.4 4.4v-2.4l6.2-3.1"/><path d="m6.2 44.1v-3.9c0-1.8.3-3.1.8-3.9.6-.9 1.4-1.3 2.6-1.3.8 0 1.5.2 2 .6.5.4.9 1 1 1.7h.1c.2-.9.5-1.6 1.1-2s1.2-.7 2.2-.7c1.2 0 2.2.4 2.9 1.2.7.8 1 2 1 3.5v4.8h-13.7m5.6-2.1v-2.1c0-.9-.1-1.6-.4-2-.3-.4-.8-.6-1.5-.6-.6 0-1.1.2-1.4.7-.3.4-.4 1.2-.4 2.1v1.9h3.7m1.8 0h4.3v-2.3c0-.9-.2-1.6-.5-2-.4-.5-.9-.7-1.7-.7-.7 0-1.2.2-1.6.7-.3.5-.5 1.2-.5 2.1v2.2"/><path d="m19.8 23.7l-3.8 1.3v5.1l3.8 1.3v2.3l-13.7-5v-2.4l13.7-4.9v2.3m-5.7 1.9l-3.7 1.2c-.2.1-.6.2-1.2.4-.5.2-.9.3-1.2.3.8.2 1.6.4 2.5.7l3.5 1.2v-3.8z"/><path d="m16.1 12c1.2 0 2.2.4 2.9 1.3.7.8 1 2 1 3.5 0 1.5-.2 2.7-.7 3.7h-2.1c.3-.6.5-1.2.7-1.9.2-.7.3-1.3.3-1.9 0-.9-.2-1.5-.5-1.9-.3-.4-.8-.6-1.4-.6-.5 0-.9.2-1.3.6-.4.4-.8 1.1-1.3 2.3-.5 1.2-1.1 2.1-1.7 2.6-.6.5-1.4.7-2.3.7-1.1 0-2-.4-2.7-1.2-.7-.8-1-1.8-1-3.2 0-1.3.3-2.5.9-3.8l1.8.7c-.5 1.2-.8 2.2-.8 3.1 0 .7.2 1.2.5 1.6.3.4.7.5 1.2.5.4 0 .7-.1.9-.2.3-.1.5-.4.7-.7.2-.3.5-.9.9-1.8.4-1 .8-1.7 1.2-2.1.4-.5.8-.8 1.2-1 .5-.2 1-.3 1.6-.3"/><path d="M19.8,2v7.5H6.2V2h1.9v5.3h3.7v-5h1.9v5h4.3V2H19.8z"/></g></svg>