<svg xmlns="http://www.w3.org/2000/svg" viewBox="0 0 68 68" enable-background="new 0 0 68 68"><g fill="#fff"><path d="M0,0v68h68V0H0z M64,64H4V4h60V64z"/><path d="m34 59c9.5 0 17.3-3.5 18.7-8h.3v-33h-.1c0-.2.1-.3.1-.5 0-5.2-8.5-9.5-19-9.5s-19 4.3-19 9.5c0 .2 0 .3.1.5h-.1v33h.3c1.4 4.5 9.2 8 18.7 8m-15-25.7c3.5 2.2 8.9 3.7 15 3.7s11.5-1.5 15-3.7v5.7h-.1c-.7 2.8-7.1 5-14.9 5s-14.2-2.2-14.9-5h-.1v-5.7m0-5.3v-4.7c3.5 2.2 8.9 3.7 15 3.7s11.5-1.4 15-3.7v4.7h-.1c-.7 2.8-7.1 5-14.9 5s-14.2-2.2-15-5m15 27c-7.8 0-14.2-2.2-14.9-5h-.1v-5.7c3.5 2.2 8.9 3.7 15 3.7s11.5-1.5 15-3.7v5.7h-.1c-.7 2.8-7.1 5-14.9 5m0-43c8.3 0 15 2.5 15 5.5s-6.7 5.5-15 5.5-15-2.5-15-5.5 6.7-5.5 15-5.5"/></g></svg>